<svg width="22" height="22" viewBox="0 0 22 22" fill="none" xmlns="http://www.w3.org/2000/svg">
<path d="M6.57283 15.5833C7.04033 15.5833 7.47116 15.3175 7.67283 14.905L8.97449 12.3017C9.10283 12.045 9.16699 11.77 9.16699 11.4858V7.33334C9.16699 6.82917 8.75449 6.41667 8.25033 6.41667H4.58366C4.07949 6.41667 3.66699 6.82917 3.66699 7.33334V11C3.66699 11.5042 4.07949 11.9167 4.58366 11.9167H6.41699L5.47283 13.805C5.06033 14.6208 5.65616 15.5833 6.57283 15.5833ZM15.7395 15.5833C16.207 15.5833 16.6378 15.3175 16.8395 14.905L18.1412 12.3017C18.2695 12.045 18.3337 11.77 18.3337 11.4858V7.33334C18.3337 6.82917 17.9212 6.41667 17.417 6.41667H13.7503C13.2462 6.41667 12.8337 6.82917 12.8337 7.33334V11C12.8337 11.5042 13.2462 11.9167 13.7503 11.9167H15.5837L14.6395 13.805C14.227 14.6208 14.8228 15.5833 15.7395 15.5833Z" fill="white"/>
</svg>
