<svg width="22" height="22" viewBox="0 0 22 22" fill="none" xmlns="http://www.w3.org/2000/svg">
<path d="M18.3336 2.75H11.9169C11.4128 2.75 11.0003 3.1625 11.0003 3.66667V11.9167L13.7503 9.16667H18.3336C18.8378 9.16667 19.2503 8.75417 19.2503 8.25V3.66667C19.2503 3.1625 18.8378 2.75 18.3336 2.75ZM17.6278 13.9883L15.2994 13.7225C14.7403 13.6583 14.1903 13.8508 13.7961 14.245L12.1094 15.9317C9.51528 14.6117 7.38861 12.4942 6.06861 9.89083L7.76445 8.195C8.15861 7.80083 8.35111 7.25083 8.28695 6.69167L8.02111 4.38167C7.91111 3.45583 7.13195 2.75917 6.19695 2.75917H4.61111C3.57528 2.75917 2.71361 3.62083 2.77778 4.65667C3.26361 12.485 9.52445 18.7367 17.3436 19.2225C18.3794 19.2867 19.2411 18.425 19.2411 17.3892V15.8033C19.2503 14.8775 18.5536 14.0983 17.6278 13.9883Z" fill="#434343"/>
</svg>
