<svg width="60" height="60" viewBox="0 0 60 60" fill="none" xmlns="http://www.w3.org/2000/svg">
<path d="M51.9043 18.5156H49.775V16.3875C49.775 16.193 49.6977 16.0064 49.5601 15.8688C49.4226 15.7312 49.236 15.6539 49.0414 15.6539H46.4152V13.7297C46.415 13.5433 46.344 13.3639 46.2165 13.2279C46.089 13.0919 45.9145 13.0095 45.7285 12.9973C36.2281 12.3961 31.584 17.2969 29.9996 19.4766C28.4199 17.2957 23.7887 12.3926 14.2695 12.9973C14.0835 13.0095 13.9091 13.0919 13.7816 13.2279C13.6541 13.3639 13.583 13.5433 13.5828 13.7297V15.6539H10.9578C10.7633 15.6539 10.5767 15.7312 10.4391 15.8688C10.3015 16.0064 10.2242 16.193 10.2242 16.3875V18.5156H8.09492C7.90036 18.5156 7.71377 18.5929 7.57619 18.7305C7.43862 18.8681 7.36133 19.0547 7.36133 19.2492V46.3196C7.36164 46.5141 7.43899 46.7007 7.57646 46.8384C7.71394 46.9761 7.90035 47.0537 8.09492 47.0543C8.14768 47.0541 8.20029 47.0486 8.25195 47.0379C8.40312 47.0028 23.5191 43.7567 29.7031 46.493H29.7195C29.7383 46.5 29.7582 46.5035 29.777 46.5094C29.7917 46.517 29.807 46.5237 29.8227 46.5293C29.8659 46.5382 29.9098 46.5437 29.9539 46.5457C29.9691 46.5457 29.9832 46.5457 29.9973 46.5457H30.0055H30.0336C30.0817 46.5445 30.1296 46.5386 30.1766 46.5282C30.1906 46.5282 30.2023 46.5153 30.2152 46.5117C30.2386 46.506 30.2617 46.4989 30.2844 46.4907C30.2844 46.4907 30.2926 46.4907 30.2961 46.4907C36.4742 43.7602 51.5961 47.0016 51.7473 47.0356C51.7989 47.0463 51.8515 47.0518 51.9043 47.052C52.0989 47.0514 52.2853 46.9737 52.4228 46.836C52.5602 46.6983 52.6376 46.5118 52.6379 46.3172V19.2469C52.6373 19.0527 52.5597 18.8668 52.4222 18.7297C52.2847 18.5926 52.0985 18.5156 51.9043 18.5156ZM48.3078 17.1211V41.7481C46.0613 41.2289 40.1738 40.459 32.5238 43.7801C34.6484 41.6707 38.7348 39.0082 45.6336 39.4606C45.7338 39.4675 45.8344 39.4535 45.929 39.4197C46.0236 39.3858 46.1101 39.3327 46.1832 39.2637C46.2568 39.1952 46.3156 39.1124 46.3559 39.0202C46.3963 38.9281 46.4172 38.8287 46.4176 38.7281V17.1223L48.3078 17.1211ZM44.9469 14.4258V37.9571C37.1434 37.6899 32.7488 41.2278 30.7332 43.5492V21.0153C31.3531 19.9629 35.2309 14.0895 44.9469 14.4281V14.4258ZM15.0523 14.4258C24.7637 14.0684 28.6461 19.9606 29.266 21.0129V43.5481C27.3219 41.311 23.1828 37.9442 15.875 37.9442C15.6055 37.9442 15.3301 37.9442 15.0547 37.9571L15.0523 14.4258ZM11.6914 17.1211H13.584V38.7281C13.5843 38.8287 13.6053 38.9281 13.6456 39.0202C13.6859 39.1124 13.7447 39.1952 13.8184 39.2637C13.8913 39.3329 13.9778 39.3862 14.0724 39.4201C14.167 39.454 14.2677 39.4678 14.368 39.4606C21.2469 39.0106 25.3402 41.6707 27.4695 43.7754C19.823 40.4555 13.9367 41.2301 11.6938 41.7481L11.6914 17.1211ZM8.82969 45.4196V19.9899H10.2242V42.7114C10.2242 42.8287 10.2524 42.9444 10.3064 43.0486C10.3604 43.1529 10.4386 43.2426 10.5345 43.3104C10.6303 43.3781 10.7411 43.4219 10.8574 43.4379C10.9736 43.454 11.0921 43.442 11.2027 43.4028C11.2648 43.3805 16.3109 41.6789 23.7418 43.9594C17.9398 43.7602 11.2297 44.9473 8.82969 45.4196ZM51.1695 45.4196C48.773 44.9508 42.0793 43.7637 36.2867 43.9582C43.6812 41.7024 48.7355 43.3817 48.7965 43.4028C48.9071 43.4417 49.0254 43.4536 49.1415 43.4374C49.2576 43.4212 49.3682 43.3774 49.4639 43.3097C49.5596 43.242 49.6377 43.1523 49.6916 43.0482C49.7456 42.9441 49.7737 42.8286 49.7738 42.7114V19.984H51.1684L51.1695 45.4196Z" fill="black"/>
</svg>
