<svg width="18" height="18" viewBox="0 0 18 18" fill="none" xmlns="http://www.w3.org/2000/svg">
<path d="M9 9.75C8.175 9.75 7.5 10.425 7.5 11.25C7.5 12.075 8.175 12.75 9 12.75C9.825 12.75 10.5 12.075 10.5 11.25C10.5 10.425 9.825 9.75 9 9.75ZM13.5 6H12.75V4.5C12.75 2.43 11.07 0.75 9 0.75C7.29 0.75 5.7975 1.905 5.37 3.5625C5.265 3.9675 5.505 4.3725 5.91 4.4775C6.3075 4.5825 6.72 4.3425 6.825 3.9375C7.08 2.9475 7.9725 2.25 9 2.25C10.2375 2.25 11.25 3.2625 11.25 4.5V6H4.5C3.675 6 3 6.675 3 7.5V15C3 15.825 3.675 16.5 4.5 16.5H13.5C14.325 16.5 15 15.825 15 15V7.5C15 6.675 14.325 6 13.5 6ZM13.5 14.25C13.5 14.6625 13.1625 15 12.75 15H5.25C4.8375 15 4.5 14.6625 4.5 14.25V8.25C4.5 7.8375 4.8375 7.5 5.25 7.5H12.75C13.1625 7.5 13.5 7.8375 13.5 8.25V14.25Z" fill="white"/>
</svg>
