<svg width="60" height="60" viewBox="0 0 60 60" fill="none" xmlns="http://www.w3.org/2000/svg">
<path d="M15 35C13.625 35 12.4479 34.5104 11.4688 33.5312C10.4896 32.5521 10 31.375 10 30C10 28.625 10.4896 27.4479 11.4688 26.4688C12.4479 25.4896 13.625 25 15 25C16.375 25 17.5521 25.4896 18.5312 26.4688C19.5104 27.4479 20 28.625 20 30C20 31.375 19.5104 32.5521 18.5312 33.5312C17.5521 34.5104 16.375 35 15 35ZM30 35C28.625 35 27.4479 34.5104 26.4688 33.5312C25.4896 32.5521 25 31.375 25 30C25 28.625 25.4896 27.4479 26.4688 26.4688C27.4479 25.4896 28.625 25 30 25C31.375 25 32.5521 25.4896 33.5312 26.4688C34.5104 27.4479 35 28.625 35 30C35 31.375 34.5104 32.5521 33.5312 33.5312C32.5521 34.5104 31.375 35 30 35ZM45 35C43.625 35 42.4479 34.5104 41.4688 33.5312C40.4896 32.5521 40 31.375 40 30C40 28.625 40.4896 27.4479 41.4688 26.4688C42.4479 25.4896 43.625 25 45 25C46.375 25 47.5521 25.4896 48.5312 26.4688C49.5104 27.4479 50 28.625 50 30C50 31.375 49.5104 32.5521 48.5312 33.5312C47.5521 34.5104 46.375 35 45 35Z" fill="black"/>
</svg>
