<svg width="22" height="22" viewBox="0 0 22 22" fill="none" xmlns="http://www.w3.org/2000/svg">
<path d="M18.333 3.66675H3.66634C2.65801 3.66675 1.84217 4.49175 1.84217 5.50008L1.83301 16.5001C1.83301 17.5084 2.65801 18.3334 3.66634 18.3334H18.333C19.3413 18.3334 20.1663 17.5084 20.1663 16.5001V5.50008C20.1663 4.49175 19.3413 3.66675 18.333 3.66675ZM17.4163 16.5001H4.58301C4.07884 16.5001 3.66634 16.0876 3.66634 15.5834V7.33341L10.028 11.3117C10.6238 11.6876 11.3755 11.6876 11.9713 11.3117L18.333 7.33341V15.5834C18.333 16.0876 17.9205 16.5001 17.4163 16.5001ZM10.9997 10.0834L3.66634 5.50008H18.333L10.9997 10.0834Z" fill="#434343"/>
</svg>
