<svg width="22" height="22" viewBox="0 0 22 22" fill="none" xmlns="http://www.w3.org/2000/svg">
<path d="M4.58366 11.9167H14.8228L10.3495 16.39C9.99199 16.7475 9.99199 17.3342 10.3495 17.6917C10.707 18.0492 11.2845 18.0492 11.642 17.6917L17.6828 11.6508C18.0403 11.2933 18.0403 10.7158 17.6828 10.3583L11.6512 4.30833C11.5664 4.22334 11.4656 4.15592 11.3547 4.10991C11.2438 4.0639 11.125 4.04022 11.0049 4.04022C10.8849 4.04022 10.766 4.0639 10.6551 4.10991C10.5442 4.15592 10.4435 4.22334 10.3587 4.30833C10.0012 4.66583 10.0012 5.24333 10.3587 5.60083L14.8228 10.0833H4.58366C4.07949 10.0833 3.66699 10.4958 3.66699 11C3.66699 11.5042 4.07949 11.9167 4.58366 11.9167Z" fill="white"/>
</svg>
