<svg width="22" height="22" viewBox="0 0 22 22" fill="none" xmlns="http://www.w3.org/2000/svg">
<path d="M8.51616 14.5566L12.0728 11L8.51616 7.44332C8.43117 7.35852 8.36374 7.25779 8.31773 7.1469C8.27173 7.036 8.24805 6.91712 8.24805 6.79707C8.24805 6.67701 8.27173 6.55813 8.31773 6.44724C8.36374 6.33634 8.43117 6.23561 8.51616 6.15082C8.87366 5.79332 9.45116 5.79332 9.80866 6.15082L14.0162 10.3583C14.3737 10.7158 14.3737 11.2933 14.0162 11.6508L9.80866 15.8583C9.45116 16.2158 8.87366 16.2158 8.51616 15.8583C8.16783 15.5008 8.15866 14.9141 8.51616 14.5566Z" fill="white"/>
</svg>
