<svg width="24" height="24" viewBox="0 0 24 24" fill="none" xmlns="http://www.w3.org/2000/svg">
<path d="M20.0004 8.68994V3.99994H15.3104L12.0004 0.689941L8.69043 3.99994H4.00043V8.68994L0.69043 11.9999L4.00043 15.3099V19.9999H8.69043L12.0004 23.3099L15.3104 19.9999H20.0004V15.3099L23.3104 11.9999L20.0004 8.68994ZM12.0004 17.9999C11.1104 17.9999 10.2604 17.7999 9.50043 17.4499C11.5604 16.4999 13.0004 14.4199 13.0004 11.9999C13.0004 9.57994 11.5604 7.49994 9.50043 6.54994C10.2604 6.19994 11.1104 5.99994 12.0004 5.99994C15.3104 5.99994 18.0004 8.68994 18.0004 11.9999C18.0004 15.3099 15.3104 17.9999 12.0004 17.9999Z" fill="white"/>
</svg>
