<svg width="60" height="60" viewBox="0 0 60 60" fill="none" xmlns="http://www.w3.org/2000/svg">
<g clip-path="url(#clip0_6_2858)">
<path d="M56.25 52.5H3.75V56.25H56.25V52.5Z" fill="black"/>
<path d="M45.9375 20.625H15C14.0057 20.626 13.0525 21.0214 12.3494 21.7244C11.6464 22.4275 11.251 23.3807 11.25 24.375V39.375C11.2529 41.8605 12.2416 44.2434 13.9991 46.0009C15.7566 47.7584 18.1395 48.7471 20.625 48.75H35.625C38.1105 48.7471 40.4934 47.7584 42.2509 46.0009C44.0084 44.2434 44.9971 41.8605 45 39.375V37.5H45.9375C48.1753 37.5 50.3214 36.6111 51.9037 35.0287C53.486 33.4464 54.375 31.3003 54.375 29.0625C54.375 26.8247 53.486 24.6786 51.9037 23.0963C50.3214 21.5139 48.1753 20.625 45.9375 20.625ZM41.25 39.375C41.2484 40.8663 40.6552 42.2961 39.6007 43.3507C38.5461 44.4052 37.1163 44.9984 35.625 45H20.625C19.1337 44.9984 17.7039 44.4052 16.6493 43.3507C15.5948 42.2961 15.0016 40.8663 15 39.375V24.375H41.25V39.375ZM45.9375 33.75H45V24.375H45.9375C47.1807 24.375 48.373 24.8689 49.2521 25.7479C50.1311 26.627 50.625 27.8193 50.625 29.0625C50.625 30.3057 50.1311 31.498 49.2521 32.3771C48.373 33.2561 47.1807 33.75 45.9375 33.75Z" fill="black"/>
<path d="M35.625 16.875H31.875V16.6012C31.8775 15.9044 31.6846 15.2208 31.3182 14.628C30.9518 14.0352 30.4266 13.557 29.8022 13.2476L24.7705 10.7317C23.5219 10.1125 22.4717 9.15583 21.739 7.97022C21.0064 6.78462 20.6204 5.41747 20.625 4.02375V1.875H24.375V4.02375C24.3728 4.72057 24.5658 5.40408 24.9321 5.99682C25.2985 6.58956 25.8236 7.06782 26.4479 7.37738L31.4796 9.89325C32.7281 10.5126 33.7782 11.4693 34.5109 12.6548C35.2436 13.8404 35.6296 15.2075 35.625 16.6012V16.875Z" fill="black"/>
</g>
<defs>
<clipPath id="clip0_6_2858">
<rect width="60" height="60" fill="white"/>
</clipPath>
</defs>
</svg>
