<svg width="22" height="22" viewBox="0 0 22 22" fill="none" xmlns="http://www.w3.org/2000/svg">
<path d="M13.4839 14.5567L9.92728 11L13.4839 7.44336C13.8414 7.08586 13.8414 6.50836 13.4839 6.15086C13.3991 6.06587 13.2984 5.99845 13.1875 5.95244C13.0766 5.90643 12.9578 5.88275 12.8377 5.88275C12.7176 5.88275 12.5988 5.90643 12.4879 5.95244C12.377 5.99845 12.2762 6.06587 12.1914 6.15086L7.98395 10.3584C7.62645 10.7159 7.62645 11.2934 7.98395 11.6509L12.1914 15.8584C12.5489 16.2159 13.1264 16.2159 13.4839 15.8584C13.8323 15.5009 13.8414 14.9142 13.4839 14.5567Z" fill="white"/>
</svg>
