<svg width="18" height="18" viewBox="0 0 18 18" fill="none" xmlns="http://www.w3.org/2000/svg">
<path d="M11.9104 6.96741L9.00035 9.87741L6.09035 6.96741C6.02097 6.89787 5.93856 6.84271 5.84783 6.80506C5.7571 6.76742 5.65983 6.74805 5.5616 6.74805C5.46337 6.74805 5.36611 6.76742 5.27538 6.80506C5.18465 6.84271 5.10223 6.89787 5.03285 6.96741C4.74035 7.25991 4.74035 7.73241 5.03285 8.02491L8.47535 11.4674C8.76785 11.7599 9.24035 11.7599 9.53285 11.4674L12.9754 8.02491C13.2679 7.73241 13.2679 7.25991 12.9754 6.96741C12.6829 6.68241 12.2029 6.67491 11.9104 6.96741Z" fill="#434343"/>
</svg>
