<svg width="60" height="60" viewBox="0 0 60 60" fill="none" xmlns="http://www.w3.org/2000/svg">
<path d="M10.455 53.25H10.5V57.2175C10.502 57.7559 10.7167 58.2718 11.0975 58.6525C11.4782 59.0332 11.9941 59.248 12.5325 59.25H17.4675C18.0059 59.248 18.5218 59.0332 18.9025 58.6525C19.2833 58.2718 19.498 57.7559 19.5 57.2175V53.25H40.5V57.2175C40.502 57.7559 40.7167 58.2718 41.0975 58.6525C41.4782 59.0332 41.9941 59.248 42.5325 59.25H47.4675C48.0059 59.248 48.5218 59.0332 48.9025 58.6525C49.2832 58.2718 49.498 57.7559 49.5 57.2175V53.25H49.545C50.3251 53.2384 51.07 52.9233 51.6217 52.3717C52.1733 51.82 52.4884 51.0751 52.5 50.295V6.2625C52.498 4.8011 51.9166 3.40013 50.8832 2.36677C49.8499 1.3334 48.4489 0.751984 46.9875 0.75H13.0125C11.5511 0.751984 10.1501 1.3334 9.11677 2.36677C8.0834 3.40013 7.50198 4.8011 7.5 6.2625V50.295C7.51162 51.0751 7.82667 51.82 8.37835 52.3717C8.93002 52.9233 9.6749 53.2384 10.455 53.25ZM18 57.2175C18 57.3587 17.9439 57.4942 17.844 57.594C17.7442 57.6939 17.6087 57.75 17.4675 57.75H12.5325C12.3913 57.75 12.2558 57.6939 12.156 57.594C12.0561 57.4942 12 57.3587 12 57.2175V53.25H18V57.2175ZM48 57.2175C48 57.3587 47.9439 57.4942 47.844 57.594C47.7442 57.6939 47.6087 57.75 47.4675 57.75H42.5325C42.3913 57.75 42.2558 57.6939 42.156 57.594C42.0561 57.4942 42 57.3587 42 57.2175V53.25H48V57.2175ZM9 6.2625C9.00198 5.19893 9.42536 4.17948 10.1774 3.42742C10.9295 2.67536 11.9489 2.25198 13.0125 2.25H46.9875C48.0511 2.25198 49.0705 2.67536 49.8226 3.42742C50.5746 4.17948 50.998 5.19893 51 6.2625V10.5H9V6.2625ZM9 12H51V29.25H9V12ZM9 30.75H51V50.295C51 50.6809 50.8467 51.051 50.5738 51.3238C50.301 51.5967 49.9309 51.75 49.545 51.75H10.455C10.0691 51.75 9.69902 51.5967 9.42616 51.3238C9.15329 51.051 9 50.6809 9 50.295V30.75ZM14.25 46.5C14.9917 46.5 15.7167 46.2801 16.3334 45.868C16.9501 45.456 17.4307 44.8703 17.7145 44.1851C17.9984 43.4998 18.0726 42.7458 17.9279 42.0184C17.7833 41.291 17.4261 40.6228 16.9017 40.0984C16.3772 39.5739 15.709 39.2168 14.9816 39.0721C14.2542 38.9274 13.5002 39.0016 12.8149 39.2855C12.1297 39.5693 11.544 40.0499 11.132 40.6666C10.7199 41.2833 10.5 42.0083 10.5 42.75C10.5 43.7446 10.8951 44.6984 11.5983 45.4016C12.3016 46.1049 13.2554 46.5 14.25 46.5ZM14.25 40.5C14.695 40.5 15.13 40.632 15.5 40.8792C15.87 41.1264 16.1584 41.4778 16.3287 41.889C16.499 42.3001 16.5436 42.7525 16.4568 43.189C16.37 43.6254 16.1557 44.0263 15.841 44.341C15.5263 44.6557 15.1254 44.8699 14.689 44.9568C14.2525 45.0436 13.8001 44.999 13.389 44.8287C12.9778 44.6584 12.6264 44.37 12.3792 44C12.132 43.63 12 43.195 12 42.75C12 42.1533 12.2371 41.581 12.659 41.159C13.081 40.7371 13.6533 40.5 14.25 40.5ZM45.75 46.5C46.4917 46.5 47.2167 46.2801 47.8334 45.868C48.4501 45.456 48.9307 44.8703 49.2146 44.1851C49.4984 43.4998 49.5726 42.7458 49.4279 42.0184C49.2832 41.291 48.9261 40.6228 48.4017 40.0984C47.8772 39.5739 47.209 39.2168 46.4816 39.0721C45.7542 38.9274 45.0002 39.0016 44.3149 39.2855C43.6297 39.5693 43.044 40.0499 42.632 40.6666C42.2199 41.2833 42 42.0083 42 42.75C42 43.7446 42.3951 44.6984 43.0984 45.4016C43.8016 46.1049 44.7554 46.5 45.75 46.5ZM45.75 40.5C46.195 40.5 46.63 40.632 47 40.8792C47.37 41.1264 47.6584 41.4778 47.8287 41.889C47.999 42.3001 48.0436 42.7525 47.9568 43.189C47.8699 43.6254 47.6557 44.0263 47.341 44.341C47.0263 44.6557 46.6254 44.8699 46.189 44.9568C45.7525 45.0436 45.3001 44.999 44.889 44.8287C44.4778 44.6584 44.1264 44.37 43.8792 44C43.632 43.63 43.5 43.195 43.5 42.75C43.5 42.1533 43.7371 41.581 44.159 41.159C44.581 40.7371 45.1533 40.5 45.75 40.5ZM22.5 42.75C22.5 42.5511 22.579 42.3603 22.7197 42.2197C22.8603 42.079 23.0511 42 23.25 42H36.75C36.9489 42 37.1397 42.079 37.2803 42.2197C37.421 42.3603 37.5 42.5511 37.5 42.75C37.5 42.9489 37.421 43.1397 37.2803 43.2803C37.1397 43.421 36.9489 43.5 36.75 43.5H23.25C23.0511 43.5 22.8603 43.421 22.7197 43.2803C22.579 43.1397 22.5 42.9489 22.5 42.75Z" fill="black"/>
</svg>
