<svg width="20" height="20" viewBox="0 0 20 20" fill="none" xmlns="http://www.w3.org/2000/svg">
<path d="M18.5547 9.27734C18.5547 7.71484 18.2031 6.26953 17.4219 4.98047C16.6406 3.65234 15.625 2.63672 14.2969 1.85547C13.0078 1.07422 11.5625 0.722656 10 0.722656C8.4375 0.722656 6.99219 1.07422 5.70312 1.85547C4.375 2.63672 3.35938 3.65234 2.57812 4.98047C1.79688 6.26953 1.44531 7.71484 1.44531 9.27734C1.44531 10.8398 1.79688 12.2852 2.57812 13.5742C3.35938 14.9023 4.375 15.918 5.70312 16.6992C6.99219 17.4805 8.4375 17.832 10 17.832C11.5625 17.832 13.0078 17.4805 14.2969 16.6992C15.625 15.918 16.6406 14.9023 17.4219 13.5742C18.2031 12.2852 18.5547 10.8398 18.5547 9.27734Z" fill="#D52027"/>
</svg>
