<svg width="18" height="18" viewBox="0 0 18 18" fill="none" xmlns="http://www.w3.org/2000/svg">
<path d="M6.09003 6.96742L9.00003 9.87742L11.91 6.96742C12.2025 6.67492 12.675 6.67492 12.9675 6.96742C13.26 7.25992 13.26 7.73242 12.9675 8.02492L9.52503 11.4674C9.23253 11.7599 8.76003 11.7599 8.46753 11.4674L5.02503 8.02492C4.95549 7.95554 4.90032 7.87313 4.86268 7.7824C4.82504 7.69167 4.80566 7.5944 4.80566 7.49617C4.80566 7.39794 4.82504 7.30068 4.86268 7.20995C4.90032 7.11922 4.95549 7.0368 5.02503 6.96742C5.31753 6.68242 5.79753 6.67492 6.09003 6.96742Z" fill="white"/>
</svg>
